{
	"asset":{
		"generator":"Khronos glTF Blender I/O v4.0.43",
		"version":"2.0"
	},
	"scene":0,
	"scenes":[
		{
			"name":"Scene",
			"nodes":[
				0,
				1,
				2,
				3,
				4,
				5,
				6,
				7,
				8
			]
		}
	],
	"nodes":[
		{
			"mesh":0,
			"name":"SM_GoalPost"
		},
		{
			"mesh":1,
			"name":"SM_Flag"
		},
		{
			"mesh":2,
			"name":"SM_Football"
		},
		{
			"mesh":3,
			"name":"SM_Feeder"
		},
		{
			"mesh":4,
			"name":"SM_Target"
		},
		{
			"mesh":5,
			"name":"SM_FloodLight"
		},
		{
			"mesh":6,
			"name":"SM_Fencing"
		},
		{
			"mesh":7,
			"name":"SM_Cone"
		},
		{
			"mesh":8,
			"name":"SM_SGoalPost"
		}
	],
	"materials":[
		{
			"doubleSided":true,
			"name":"UV_Unwrap",
			"pbrMetallicRoughness":{
				"baseColorTexture":{
					"index":0
				},
				"metallicFactor":0,
				"roughnessFactor":0.5
			}
		},
		{
			"doubleSided":true,
			"name":"UV_Unwrap",
			"pbrMetallicRoughness":{
				"baseColorTexture":{
					"index":1
				},
				"metallicFactor":0,
				"roughnessFactor":0.5
			}
		}
	],
	"meshes":[
		{
			"name":"SM_GoalPost",
			"primitives":[
				{
					"attributes":{
						"POSITION":0,
						"NORMAL":1,
						"TEXCOORD_0":2
					},
					"indices":3,
					"material":0
				}
			]
		},
		{
			"name":"SM_Flag",
			"primitives":[
				{
					"attributes":{
						"POSITION":4,
						"NORMAL":5,
						"TEXCOORD_0":6
					},
					"indices":7,
					"material":1
				}
			]
		},
		{
			"name":"SM_Football",
			"primitives":[
				{
					"attributes":{
						"POSITION":8,
						"NORMAL":9,
						"TEXCOORD_0":10
					},
					"indices":11,
					"material":1
				}
			]
		},
		{
			"name":"SM_Feeder",
			"primitives":[
				{
					"attributes":{
						"COLOR_0":12,
						"POSITION":13,
						"NORMAL":14,
						"TEXCOORD_0":15
					},
					"indices":16,
					"material":1
				}
			]
		},
		{
			"name":"SM_Target",
			"primitives":[
				{
					"attributes":{
						"POSITION":17,
						"NORMAL":18,
						"TEXCOORD_0":19
					},
					"indices":20,
					"material":1
				}
			]
		},
		{
			"name":"SM_FloodLight",
			"primitives":[
				{
					"attributes":{
						"POSITION":21,
						"NORMAL":22,
						"TEXCOORD_0":23
					},
					"indices":24,
					"material":1
				}
			]
		},
		{
			"name":"SM_Fencing",
			"primitives":[
				{
					"attributes":{
						"POSITION":25,
						"NORMAL":26,
						"TEXCOORD_0":27
					},
					"indices":28,
					"material":1
				}
			]
		},
		{
			"name":"SM_Cone",
			"primitives":[
				{
					"attributes":{
						"POSITION":29,
						"NORMAL":30,
						"TEXCOORD_0":31
					},
					"indices":32,
					"material":1
				}
			]
		},
		{
			"name":"SM_SGoalPost",
			"primitives":[
				{
					"attributes":{
						"COLOR_0":33,
						"POSITION":34,
						"NORMAL":35,
						"TEXCOORD_0":36
					},
					"indices":37,
					"material":0
				}
			]
		}
	],
	"textures":[
		{
			"sampler":0,
			"source":0
		},
		{
			"sampler":0,
			"source":0
		}
	],
	"images":[
		{
			"mimeType":"image/png",
			"name":"AtalsDiffuse",
			"uri":"AtalsDiffuse.png"
		}
	],
	"accessors":[
		{
			"bufferView":0,
			"componentType":5126,
			"count":151,
			"max":[
				1.1795268058776855,
				2.398064374923706,
				3.647286891937256
			],
			"min":[
				1.0535268783569336,
				0.01101696491241455,
				-3.647286891937256
			],
			"type":"VEC3"
		},
		{
			"bufferView":1,
			"componentType":5126,
			"count":151,
			"type":"VEC3"
		},
		{
			"bufferView":2,
			"componentType":5126,
			"count":151,
			"type":"VEC2"
		},
		{
			"bufferView":3,
			"componentType":5123,
			"count":468,
			"type":"SCALAR"
		},
		{
			"bufferView":4,
			"componentType":5126,
			"count":122,
			"max":[
				0.6871681213378906,
				1.524000883102417,
				0.02500000037252903
			],
			"min":[
				-0.02500000037252903,
				5.960464477539063e-08,
				-0.02500000037252903
			],
			"type":"VEC3"
		},
		{
			"bufferView":5,
			"componentType":5126,
			"count":122,
			"type":"VEC3"
		},
		{
			"bufferView":6,
			"componentType":5126,
			"count":122,
			"type":"VEC2"
		},
		{
			"bufferView":7,
			"componentType":5123,
			"count":228,
			"type":"SCALAR"
		},
		{
			"bufferView":8,
			"componentType":5126,
			"count":559,
			"max":[
				0.11000002920627594,
				0.10999999940395355,
				0.10999995470046997
			],
			"min":[
				-0.10999996215105057,
				-0.10999999940395355,
				-0.11000003665685654
			],
			"type":"VEC3"
		},
		{
			"bufferView":9,
			"componentType":5126,
			"count":559,
			"type":"VEC3"
		},
		{
			"bufferView":10,
			"componentType":5126,
			"count":559,
			"type":"VEC2"
		},
		{
			"bufferView":11,
			"componentType":5123,
			"count":2880,
			"type":"SCALAR"
		},
		{
			"bufferView":12,
			"componentType":5123,
			"count":4843,
			"normalized":true,
			"type":"VEC4"
		},
		{
			"bufferView":13,
			"componentType":5126,
			"count":4843,
			"max":[
				0.6414268612861633,
				1.562551498413086,
				0.35353097319602966
			],
			"min":[
				-0.6414268016815186,
				0.0009103892953135073,
				-0.7132298946380615
			],
			"type":"VEC3"
		},
		{
			"bufferView":14,
			"componentType":5126,
			"count":4843,
			"type":"VEC3"
		},
		{
			"bufferView":15,
			"componentType":5126,
			"count":4843,
			"type":"VEC2"
		},
		{
			"bufferView":16,
			"componentType":5123,
			"count":23880,
			"type":"SCALAR"
		},
		{
			"bufferView":17,
			"componentType":5126,
			"count":778,
			"max":[
				0.6414835453033447,
				1.7559504508972168,
				0.4522392451763153
			],
			"min":[
				-0.6415273547172546,
				-1.30385160446167e-08,
				-0.3221968114376068
			],
			"type":"VEC3"
		},
		{
			"bufferView":18,
			"componentType":5126,
			"count":778,
			"type":"VEC3"
		},
		{
			"bufferView":19,
			"componentType":5126,
			"count":778,
			"type":"VEC2"
		},
		{
			"bufferView":20,
			"componentType":5123,
			"count":2328,
			"type":"SCALAR"
		},
		{
			"bufferView":21,
			"componentType":5126,
			"count":217,
			"max":[
				0.9984140396118164,
				23.973102569580078,
				1.0245367288589478
			],
			"min":[
				-0.9984140396118164,
				-1.3969838619232178e-09,
				-0.3926549553871155
			],
			"type":"VEC3"
		},
		{
			"bufferView":22,
			"componentType":5126,
			"count":217,
			"type":"VEC3"
		},
		{
			"bufferView":23,
			"componentType":5126,
			"count":217,
			"type":"VEC2"
		},
		{
			"bufferView":24,
			"componentType":5123,
			"count":858,
			"type":"SCALAR"
		},
		{
			"bufferView":25,
			"componentType":5126,
			"count":2876,
			"max":[
				5,
				4.5,
				0.05000000074505806
			],
			"min":[
				-5,
				0,
				-0.05000000074505806
			],
			"type":"VEC3"
		},
		{
			"bufferView":26,
			"componentType":5126,
			"count":2876,
			"type":"VEC3"
		},
		{
			"bufferView":27,
			"componentType":5126,
			"count":2876,
			"type":"VEC2"
		},
		{
			"bufferView":28,
			"componentType":5123,
			"count":13044,
			"type":"SCALAR"
		},
		{
			"bufferView":29,
			"componentType":5126,
			"count":585,
			"max":[
				0.13288506865501404,
				0.31842878460884094,
				0.13288506865501404
			],
			"min":[
				-0.13288506865501404,
				-0.0002394663169980049,
				-0.13288506865501404
			],
			"type":"VEC3"
		},
		{
			"bufferView":30,
			"componentType":5126,
			"count":585,
			"type":"VEC3"
		},
		{
			"bufferView":31,
			"componentType":5126,
			"count":585,
			"type":"VEC2"
		},
		{
			"bufferView":32,
			"componentType":5123,
			"count":2772,
			"type":"SCALAR"
		},
		{
			"bufferView":33,
			"componentType":5123,
			"count":894,
			"normalized":true,
			"type":"VEC4"
		},
		{
			"bufferView":34,
			"componentType":5126,
			"count":894,
			"max":[
				1.2847141027450562,
				1.7071564197540283,
				1.1592882871627808
			],
			"min":[
				-0.5680776834487915,
				-0.15659642219543457,
				-1.1592882871627808
			],
			"type":"VEC3"
		},
		{
			"bufferView":35,
			"componentType":5126,
			"count":894,
			"type":"VEC3"
		},
		{
			"bufferView":36,
			"componentType":5126,
			"count":894,
			"type":"VEC2"
		},
		{
			"bufferView":37,
			"componentType":5123,
			"count":2244,
			"type":"SCALAR"
		}
	],
	"bufferViews":[
		{
			"buffer":0,
			"byteLength":1812,
			"byteOffset":0,
			"target":34962
		},
		{
			"buffer":0,
			"byteLength":1812,
			"byteOffset":1812,
			"target":34962
		},
		{
			"buffer":0,
			"byteLength":1208,
			"byteOffset":3624,
			"target":34962
		},
		{
			"buffer":0,
			"byteLength":936,
			"byteOffset":4832,
			"target":34963
		},
		{
			"buffer":0,
			"byteLength":1464,
			"byteOffset":5768,
			"target":34962
		},
		{
			"buffer":0,
			"byteLength":1464,
			"byteOffset":7232,
			"target":34962
		},
		{
			"buffer":0,
			"byteLength":976,
			"byteOffset":8696,
			"target":34962
		},
		{
			"buffer":0,
			"byteLength":456,
			"byteOffset":9672,
			"target":34963
		},
		{
			"buffer":0,
			"byteLength":6708,
			"byteOffset":10128,
			"target":34962
		},
		{
			"buffer":0,
			"byteLength":6708,
			"byteOffset":16836,
			"target":34962
		},
		{
			"buffer":0,
			"byteLength":4472,
			"byteOffset":23544,
			"target":34962
		},
		{
			"buffer":0,
			"byteLength":5760,
			"byteOffset":28016,
			"target":34963
		},
		{
			"buffer":0,
			"byteLength":38744,
			"byteOffset":33776,
			"target":34962
		},
		{
			"buffer":0,
			"byteLength":58116,
			"byteOffset":72520,
			"target":34962
		},
		{
			"buffer":0,
			"byteLength":58116,
			"byteOffset":130636,
			"target":34962
		},
		{
			"buffer":0,
			"byteLength":38744,
			"byteOffset":188752,
			"target":34962
		},
		{
			"buffer":0,
			"byteLength":47760,
			"byteOffset":227496,
			"target":34963
		},
		{
			"buffer":0,
			"byteLength":9336,
			"byteOffset":275256,
			"target":34962
		},
		{
			"buffer":0,
			"byteLength":9336,
			"byteOffset":284592,
			"target":34962
		},
		{
			"buffer":0,
			"byteLength":6224,
			"byteOffset":293928,
			"target":34962
		},
		{
			"buffer":0,
			"byteLength":4656,
			"byteOffset":300152,
			"target":34963
		},
		{
			"buffer":0,
			"byteLength":2604,
			"byteOffset":304808,
			"target":34962
		},
		{
			"buffer":0,
			"byteLength":2604,
			"byteOffset":307412,
			"target":34962
		},
		{
			"buffer":0,
			"byteLength":1736,
			"byteOffset":310016,
			"target":34962
		},
		{
			"buffer":0,
			"byteLength":1716,
			"byteOffset":311752,
			"target":34963
		},
		{
			"buffer":0,
			"byteLength":34512,
			"byteOffset":313468,
			"target":34962
		},
		{
			"buffer":0,
			"byteLength":34512,
			"byteOffset":347980,
			"target":34962
		},
		{
			"buffer":0,
			"byteLength":23008,
			"byteOffset":382492,
			"target":34962
		},
		{
			"buffer":0,
			"byteLength":26088,
			"byteOffset":405500,
			"target":34963
		},
		{
			"buffer":0,
			"byteLength":7020,
			"byteOffset":431588,
			"target":34962
		},
		{
			"buffer":0,
			"byteLength":7020,
			"byteOffset":438608,
			"target":34962
		},
		{
			"buffer":0,
			"byteLength":4680,
			"byteOffset":445628,
			"target":34962
		},
		{
			"buffer":0,
			"byteLength":5544,
			"byteOffset":450308,
			"target":34963
		},
		{
			"buffer":0,
			"byteLength":7152,
			"byteOffset":455852,
			"target":34962
		},
		{
			"buffer":0,
			"byteLength":10728,
			"byteOffset":463004,
			"target":34962
		},
		{
			"buffer":0,
			"byteLength":10728,
			"byteOffset":473732,
			"target":34962
		},
		{
			"buffer":0,
			"byteLength":7152,
			"byteOffset":484460,
			"target":34962
		},
		{
			"buffer":0,
			"byteLength":4488,
			"byteOffset":491612,
			"target":34963
		}
	],
	"samplers":[
		{
			"magFilter":9729,
			"minFilter":9987
		}
	],
	"buffers":[
		{
			"byteLength":496100,
			"uri":"Assets.bin"
		}
	]
}
