{
	"asset":{
		"generator":"Khronos glTF Blender I/O v4.0.43",
		"version":"2.0"
	},
	"scene":0,
	"scenes":[
		{
			"name":"Scene",
			"nodes":[
				0
			]
		}
	],
	"nodes":[
		{
			"mesh":0,
			"name":"Assets_SM_Football"
		}
	],
	"materials":[
		{
			"doubleSided":true,
			"name":"Material.001",
			"pbrMetallicRoughness":{
				"baseColorFactor":[
					0.800000011920929,
					0.800000011920929,
					0.800000011920929,
					1
				],
				"metallicFactor":0,
				"roughnessFactor":0.5
			}
		},
		{
			"doubleSided":true,
			"name":"Material.002",
			"pbrMetallicRoughness":{
				"baseColorFactor":[
					0,
					0.026489539071917534,
					0.8000000715255737,
					1
				],
				"metallicFactor":0,
				"roughnessFactor":0.5
			}
		}
	],
	"meshes":[
		{
			"name":"Assets_SM_Football",
			"primitives":[
				{
					"attributes":{
						"POSITION":0,
						"NORMAL":1,
						"TEXCOORD_0":2
					},
					"indices":3,
					"material":0
				},
				{
					"attributes":{
						"POSITION":4,
						"NORMAL":5,
						"TEXCOORD_0":6
					},
					"indices":7,
					"material":1
				}
			]
		}
	],
	"accessors":[
		{
			"bufferView":0,
			"componentType":5126,
			"count":471,
			"max":[
				0.10154349356889725,
				0.09046593308448792,
				0.10173500329256058
			],
			"min":[
				-0.10154349356889725,
				-0.09046593308448792,
				-0.10173500329256058
			],
			"type":"VEC3"
		},
		{
			"bufferView":1,
			"componentType":5126,
			"count":471,
			"type":"VEC3"
		},
		{
			"bufferView":2,
			"componentType":5126,
			"count":471,
			"type":"VEC2"
		},
		{
			"bufferView":3,
			"componentType":5123,
			"count":1440,
			"type":"SCALAR"
		},
		{
			"bufferView":4,
			"componentType":5126,
			"count":1281,
			"max":[
				0.10161074995994568,
				0.10233356803655624,
				0.10173500329256058
			],
			"min":[
				-0.10161074995994568,
				-0.10233357548713684,
				-0.10173500329256058
			],
			"type":"VEC3"
		},
		{
			"bufferView":5,
			"componentType":5126,
			"count":1281,
			"type":"VEC3"
		},
		{
			"bufferView":6,
			"componentType":5126,
			"count":1281,
			"type":"VEC2"
		},
		{
			"bufferView":7,
			"componentType":5123,
			"count":4320,
			"type":"SCALAR"
		}
	],
	"bufferViews":[
		{
			"buffer":0,
			"byteLength":5652,
			"byteOffset":0,
			"target":34962
		},
		{
			"buffer":0,
			"byteLength":5652,
			"byteOffset":5652,
			"target":34962
		},
		{
			"buffer":0,
			"byteLength":3768,
			"byteOffset":11304,
			"target":34962
		},
		{
			"buffer":0,
			"byteLength":2880,
			"byteOffset":15072,
			"target":34963
		},
		{
			"buffer":0,
			"byteLength":15372,
			"byteOffset":17952,
			"target":34962
		},
		{
			"buffer":0,
			"byteLength":15372,
			"byteOffset":33324,
			"target":34962
		},
		{
			"buffer":0,
			"byteLength":10248,
			"byteOffset":48696,
			"target":34962
		},
		{
			"buffer":0,
			"byteLength":8640,
			"byteOffset":58944,
			"target":34963
		}
	],
	"buffers":[
		{
			"byteLength":67584,
			"uri":"football.bin"
		}
	]
}
