{
	"asset":{
		"generator":"Khronos glTF Blender I/O v4.0.43",
		"version":"2.0"
	},
	"scene":0,
	"scenes":[
		{
			"name":"Scene",
			"nodes":[
				0
			]
		}
	],
	"nodes":[
		{
			"mesh":0,
			"name":"Plane"
		}
	],
	"meshes":[
		{
			"name":"Plane.001",
			"primitives":[
				{
					"attributes":{
						"COLOR_0":0,
						"POSITION":1,
						"NORMAL":2,
						"TEXCOORD_0":3
					},
					"indices":4
				}
			]
		}
	],
	"accessors":[
		{
			"bufferView":0,
			"componentType":5123,
			"count":48108,
			"normalized":true,
			"type":"VEC4"
		},
		{
			"bufferView":1,
			"componentType":5126,
			"count":48108,
			"max":[
				300.000244140625,
				17.587406158447266,
				207.00051879882812
			],
			"min":[
				-300.000244140625,
				-0.2895421087741852,
				-207.00047302246094
			],
			"type":"VEC3"
		},
		{
			"bufferView":2,
			"componentType":5126,
			"count":48108,
			"type":"VEC3"
		},
		{
			"bufferView":3,
			"componentType":5126,
			"count":48108,
			"type":"VEC2"
		},
		{
			"bufferView":4,
			"componentType":5123,
			"count":98304,
			"type":"SCALAR"
		}
	],
	"bufferViews":[
		{
			"buffer":0,
			"byteLength":384864,
			"byteOffset":0,
			"target":34962
		},
		{
			"buffer":0,
			"byteLength":577296,
			"byteOffset":384864,
			"target":34962
		},
		{
			"buffer":0,
			"byteLength":577296,
			"byteOffset":962160,
			"target":34962
		},
		{
			"buffer":0,
			"byteLength":384864,
			"byteOffset":1539456,
			"target":34962
		},
		{
			"buffer":0,
			"byteLength":196608,
			"byteOffset":1924320,
			"target":34963
		}
	],
	"buffers":[
		{
			"byteLength":2120928,
			"uri":"Landscape.bin"
		}
	]
}
