{
	"asset":{
		"generator":"Khronos glTF Blender I/O v4.0.43",
		"version":"2.0"
	},
	"scene":0,
	"scenes":[
		{
			"name":"Scene",
			"nodes":[
				0
			]
		}
	],
	"nodes":[
		{
			"mesh":0,
			"name":"SM_Pitch"
		}
	],
	"materials":[
		{
			"doubleSided":true,
			"name":"Material.001",
			"pbrMetallicRoughness":{
				"baseColorTexture":{
					"index":0
				},
				"metallicFactor":0,
				"roughnessFactor":0.5
			}
		},
		{
			"doubleSided":true,
			"name":"m_White",
			"pbrMetallicRoughness":{
				"metallicFactor":0,
				"roughnessFactor":0.5
			}
		},
		{
			"doubleSided":true,
			"name":"Material.018",
			"pbrMetallicRoughness":{
				"baseColorFactor":[
					0,
					0.3515370190143585,
					0,
					1
				],
				"metallicFactor":0,
				"roughnessFactor":0.5
			}
		}
	],
	"meshes":[
		{
			"name":"SM_Pitch",
			"primitives":[
				{
					"attributes":{
						"POSITION":0,
						"NORMAL":1,
						"TEXCOORD_0":2
					},
					"indices":3,
					"material":0
				},
				{
					"attributes":{
						"POSITION":4,
						"NORMAL":5,
						"TEXCOORD_0":6
					},
					"indices":7,
					"material":1
				},
				{
					"attributes":{
						"POSITION":8,
						"NORMAL":9,
						"TEXCOORD_0":10
					},
					"indices":11,
					"material":2
				}
			]
		}
	],
	"textures":[
		{
			"sampler":0,
			"source":0
		}
	],
	"images":[
		{
			"mimeType":"image/png",
			"name":"M_PitchDiffuse",
			"uri":"M_PitchDiffuse.png"
		}
	],
	"accessors":[
		{
			"bufferView":0,
			"componentType":5126,
			"count":33,
			"max":[
				50,
				1.0576896667480469,
				34.5
			],
			"min":[
				-50,
				0,
				-34.5
			],
			"type":"VEC3"
		},
		{
			"bufferView":1,
			"componentType":5126,
			"count":33,
			"type":"VEC3"
		},
		{
			"bufferView":2,
			"componentType":5126,
			"count":33,
			"type":"VEC2"
		},
		{
			"bufferView":3,
			"componentType":5123,
			"count":72,
			"type":"SCALAR"
		},
		{
			"bufferView":4,
			"componentType":5126,
			"count":441,
			"max":[
				48.868289947509766,
				1.0576896667480469,
				33.368289947509766
			],
			"min":[
				-48.868289947509766,
				1.0576896667480469,
				-33.368289947509766
			],
			"type":"VEC3"
		},
		{
			"bufferView":5,
			"componentType":5126,
			"count":441,
			"type":"VEC3"
		},
		{
			"bufferView":6,
			"componentType":5126,
			"count":441,
			"type":"VEC2"
		},
		{
			"bufferView":7,
			"componentType":5123,
			"count":1416,
			"type":"SCALAR"
		},
		{
			"bufferView":8,
			"componentType":5126,
			"count":496,
			"max":[
				50,
				1.0576896667480469,
				34.5
			],
			"min":[
				-50,
				1.0576896667480469,
				-34.5
			],
			"type":"VEC3"
		},
		{
			"bufferView":9,
			"componentType":5126,
			"count":496,
			"type":"VEC3"
		},
		{
			"bufferView":10,
			"componentType":5126,
			"count":496,
			"type":"VEC2"
		},
		{
			"bufferView":11,
			"componentType":5123,
			"count":1476,
			"type":"SCALAR"
		}
	],
	"bufferViews":[
		{
			"buffer":0,
			"byteLength":396,
			"byteOffset":0,
			"target":34962
		},
		{
			"buffer":0,
			"byteLength":396,
			"byteOffset":396,
			"target":34962
		},
		{
			"buffer":0,
			"byteLength":264,
			"byteOffset":792,
			"target":34962
		},
		{
			"buffer":0,
			"byteLength":144,
			"byteOffset":1056,
			"target":34963
		},
		{
			"buffer":0,
			"byteLength":5292,
			"byteOffset":1200,
			"target":34962
		},
		{
			"buffer":0,
			"byteLength":5292,
			"byteOffset":6492,
			"target":34962
		},
		{
			"buffer":0,
			"byteLength":3528,
			"byteOffset":11784,
			"target":34962
		},
		{
			"buffer":0,
			"byteLength":2832,
			"byteOffset":15312,
			"target":34963
		},
		{
			"buffer":0,
			"byteLength":5952,
			"byteOffset":18144,
			"target":34962
		},
		{
			"buffer":0,
			"byteLength":5952,
			"byteOffset":24096,
			"target":34962
		},
		{
			"buffer":0,
			"byteLength":3968,
			"byteOffset":30048,
			"target":34962
		},
		{
			"buffer":0,
			"byteLength":2952,
			"byteOffset":34016,
			"target":34963
		}
	],
	"samplers":[
		{
			"magFilter":9729,
			"minFilter":9987
		}
	],
	"buffers":[
		{
			"byteLength":36968,
			"uri":"Pitch.bin"
		}
	]
}
