{
	"asset":{
		"generator":"Khronos glTF Blender I/O v4.0.43",
		"version":"2.0"
	},
	"scene":0,
	"scenes":[
		{
			"name":"Scene",
			"nodes":[
				0
			]
		}
	],
	"nodes":[
		{
			"mesh":0,
			"name":"Plane.001"
		}
	],
	"materials":[
		{
			"doubleSided":true,
			"name":"Material.001",
			"pbrMetallicRoughness":{
				"metallicFactor":0,
				"roughnessFactor":0.5
			}
		}
	],
	"meshes":[
		{
			"name":"Plane.002",
			"primitives":[
				{
					"attributes":{
						"COLOR_0":0,
						"POSITION":1,
						"NORMAL":2,
						"TEXCOORD_0":3
					},
					"indices":4,
					"material":0
				}
			]
		}
	],
	"accessors":[
		{
			"bufferView":0,
			"componentType":5123,
			"count":808,
			"normalized":true,
			"type":"VEC4"
		},
		{
			"bufferView":1,
			"componentType":5126,
			"count":808,
			"max":[
				300.000244140625,
				17.126819610595703,
				207.0030975341797
			],
			"min":[
				-300.000244140625,
				-0.06428081542253494,
				-207.0001983642578
			],
			"type":"VEC3"
		},
		{
			"bufferView":2,
			"componentType":5126,
			"count":808,
			"type":"VEC3"
		},
		{
			"bufferView":3,
			"componentType":5126,
			"count":808,
			"type":"VEC2"
		},
		{
			"bufferView":4,
			"componentType":5123,
			"count":1488,
			"type":"SCALAR"
		}
	],
	"bufferViews":[
		{
			"buffer":0,
			"byteLength":6464,
			"byteOffset":0,
			"target":34962
		},
		{
			"buffer":0,
			"byteLength":9696,
			"byteOffset":6464,
			"target":34962
		},
		{
			"buffer":0,
			"byteLength":9696,
			"byteOffset":16160,
			"target":34962
		},
		{
			"buffer":0,
			"byteLength":6464,
			"byteOffset":25856,
			"target":34962
		},
		{
			"buffer":0,
			"byteLength":2976,
			"byteOffset":32320,
			"target":34963
		}
	],
	"buffers":[
		{
			"byteLength":35296,
			"uri":"PitchMask.bin"
		}
	]
}
