{
	"asset":{
		"generator":"Khronos glTF Blender I/O v4.0.43",
		"version":"2.0"
	},
	"scene":0,
	"scenes":[
		{
			"name":"Scene",
			"nodes":[
				0,
				1,
				2,
				3
			]
		}
	],
	"nodes":[
		{
			"mesh":0,
			"name":"House2",
			"scale":[
				0.9511789083480835,
				0.9511789083480835,
				0.9511789083480835
			]
		},
		{
			"mesh":1,
			"name":"House1",
			"scale":[
				1.0707619190216064,
				1.0707619190216064,
				1.0707619190216064
			]
		},
		{
			"mesh":2,
			"name":"House4",
			"scale":[
				1.0238456726074219,
				1.0238456726074219,
				1.0238456726074219
			]
		},
		{
			"mesh":3,
			"name":"House3"
		}
	],
	"materials":[
		{
			"doubleSided":true,
			"name":"lambert1",
			"pbrMetallicRoughness":{
				"baseColorTexture":{
					"index":0
				},
				"metallicFactor":0,
				"roughnessFactor":0.5527864098548889
			}
		},
		{
			"doubleSided":true,
			"name":"lambert2",
			"pbrMetallicRoughness":{
				"baseColorFactor":[
					0.5,
					0.5,
					0.5,
					1
				],
				"metallicFactor":0,
				"roughnessFactor":0.5527864098548889
			}
		}
	],
	"meshes":[
		{
			"name":"House2",
			"primitives":[
				{
					"attributes":{
						"POSITION":0,
						"NORMAL":1,
						"TEXCOORD_0":2
					},
					"indices":3,
					"material":0
				}
			]
		},
		{
			"name":"House1",
			"primitives":[
				{
					"attributes":{
						"POSITION":4,
						"NORMAL":5,
						"TEXCOORD_0":6
					},
					"indices":7,
					"material":0
				}
			]
		},
		{
			"name":"House4",
			"primitives":[
				{
					"attributes":{
						"POSITION":8,
						"NORMAL":9,
						"TEXCOORD_0":10
					},
					"indices":11,
					"material":0
				},
				{
					"attributes":{
						"POSITION":12,
						"NORMAL":13,
						"TEXCOORD_0":14
					},
					"indices":15,
					"material":1
				}
			]
		},
		{
			"name":"House3",
			"primitives":[
				{
					"attributes":{
						"POSITION":16,
						"NORMAL":17,
						"TEXCOORD_0":18
					},
					"indices":19,
					"material":0
				}
			]
		}
	],
	"textures":[
		{
			"sampler":0,
			"source":0
		}
	],
	"images":[
		{
			"mimeType":"image/png",
			"name":"TownhallAtalsDiffuse",
			"uri":"TownhallAtalsDiffuse.png"
		}
	],
	"accessors":[
		{
			"bufferView":0,
			"componentType":5126,
			"count":3173,
			"max":[
				4.310258388519287,
				13.100809097290039,
				8.440215110778809
			],
			"min":[
				-4.39617919921875,
				-5.058108740740863e-07,
				-8.377494812011719
			],
			"type":"VEC3"
		},
		{
			"bufferView":1,
			"componentType":5126,
			"count":3173,
			"type":"VEC3"
		},
		{
			"bufferView":2,
			"componentType":5126,
			"count":3173,
			"type":"VEC2"
		},
		{
			"bufferView":3,
			"componentType":5123,
			"count":7920,
			"type":"SCALAR"
		},
		{
			"bufferView":4,
			"componentType":5126,
			"count":1244,
			"max":[
				3.7066500186920166,
				11.646621704101562,
				5.033313274383545
			],
			"min":[
				-3.559305429458618,
				-2.787745074783743e-07,
				-4.951030254364014
			],
			"type":"VEC3"
		},
		{
			"bufferView":5,
			"componentType":5126,
			"count":1244,
			"type":"VEC3"
		},
		{
			"bufferView":6,
			"componentType":5126,
			"count":1244,
			"type":"VEC2"
		},
		{
			"bufferView":7,
			"componentType":5123,
			"count":3576,
			"type":"SCALAR"
		},
		{
			"bufferView":8,
			"componentType":5126,
			"count":4123,
			"max":[
				6.092743873596191,
				12.202066421508789,
				12.203181266784668
			],
			"min":[
				-6.225330829620361,
				-0.016646241769194603,
				-10.035584449768066
			],
			"type":"VEC3"
		},
		{
			"bufferView":9,
			"componentType":5126,
			"count":4123,
			"type":"VEC3"
		},
		{
			"bufferView":10,
			"componentType":5126,
			"count":4123,
			"type":"VEC2"
		},
		{
			"bufferView":11,
			"componentType":5123,
			"count":11832,
			"type":"SCALAR"
		},
		{
			"bufferView":12,
			"componentType":5126,
			"count":866,
			"max":[
				-5.929038047790527,
				3.9561102390289307,
				-0.21756426990032196
			],
			"min":[
				-6.255825042724609,
				3.217681646347046,
				-0.6228755116462708
			],
			"type":"VEC3"
		},
		{
			"bufferView":13,
			"componentType":5126,
			"count":866,
			"type":"VEC3"
		},
		{
			"bufferView":14,
			"componentType":5126,
			"count":866,
			"type":"VEC2"
		},
		{
			"bufferView":15,
			"componentType":5123,
			"count":1344,
			"type":"SCALAR"
		},
		{
			"bufferView":16,
			"componentType":5126,
			"count":4037,
			"max":[
				11.732900619506836,
				12.489120483398438,
				12.648317337036133
			],
			"min":[
				-4.924778938293457,
				-0.014997570775449276,
				-7.357537269592285
			],
			"type":"VEC3"
		},
		{
			"bufferView":17,
			"componentType":5126,
			"count":4037,
			"type":"VEC3"
		},
		{
			"bufferView":18,
			"componentType":5126,
			"count":4037,
			"type":"VEC2"
		},
		{
			"bufferView":19,
			"componentType":5123,
			"count":10914,
			"type":"SCALAR"
		}
	],
	"bufferViews":[
		{
			"buffer":0,
			"byteLength":38076,
			"byteOffset":0,
			"target":34962
		},
		{
			"buffer":0,
			"byteLength":38076,
			"byteOffset":38076,
			"target":34962
		},
		{
			"buffer":0,
			"byteLength":25384,
			"byteOffset":76152,
			"target":34962
		},
		{
			"buffer":0,
			"byteLength":15840,
			"byteOffset":101536,
			"target":34963
		},
		{
			"buffer":0,
			"byteLength":14928,
			"byteOffset":117376,
			"target":34962
		},
		{
			"buffer":0,
			"byteLength":14928,
			"byteOffset":132304,
			"target":34962
		},
		{
			"buffer":0,
			"byteLength":9952,
			"byteOffset":147232,
			"target":34962
		},
		{
			"buffer":0,
			"byteLength":7152,
			"byteOffset":157184,
			"target":34963
		},
		{
			"buffer":0,
			"byteLength":49476,
			"byteOffset":164336,
			"target":34962
		},
		{
			"buffer":0,
			"byteLength":49476,
			"byteOffset":213812,
			"target":34962
		},
		{
			"buffer":0,
			"byteLength":32984,
			"byteOffset":263288,
			"target":34962
		},
		{
			"buffer":0,
			"byteLength":23664,
			"byteOffset":296272,
			"target":34963
		},
		{
			"buffer":0,
			"byteLength":10392,
			"byteOffset":319936,
			"target":34962
		},
		{
			"buffer":0,
			"byteLength":10392,
			"byteOffset":330328,
			"target":34962
		},
		{
			"buffer":0,
			"byteLength":6928,
			"byteOffset":340720,
			"target":34962
		},
		{
			"buffer":0,
			"byteLength":2688,
			"byteOffset":347648,
			"target":34963
		},
		{
			"buffer":0,
			"byteLength":48444,
			"byteOffset":350336,
			"target":34962
		},
		{
			"buffer":0,
			"byteLength":48444,
			"byteOffset":398780,
			"target":34962
		},
		{
			"buffer":0,
			"byteLength":32296,
			"byteOffset":447224,
			"target":34962
		},
		{
			"buffer":0,
			"byteLength":21828,
			"byteOffset":479520,
			"target":34963
		}
	],
	"samplers":[
		{
			"magFilter":9729,
			"minFilter":9987
		}
	],
	"buffers":[
		{
			"byteLength":501348,
			"uri":"SM_.bin"
		}
	]
}
