{
	"asset":{
		"generator":"Khronos glTF Blender I/O v4.0.43",
		"version":"2.0"
	},
	"scene":0,
	"scenes":[
		{
			"name":"Scene",
			"nodes":[
				0,
				1,
				2,
				3,
				4,
				5,
				6,
				7,
				8,
				9,
				10,
				11,
				12,
				13
			]
		}
	],
	"nodes":[
		{
			"mesh":0,
			"name":"Dirt MountT5"
		},
		{
			"mesh":1,
			"name":"Dirt MountT1",
			"rotation":[
				0,
				-1,
				0,
				1.9470718370939721e-07
			]
		},
		{
			"mesh":2,
			"name":"Dirt MountT2"
		},
		{
			"mesh":3,
			"name":"Dirt MountT3"
		},
		{
			"mesh":4,
			"name":"Dirt MountT4"
		},
		{
			"mesh":5,
			"name":"Dirt MountT6"
		},
		{
			"mesh":6,
			"name":"RockT4"
		},
		{
			"mesh":7,
			"name":"RockT3"
		},
		{
			"mesh":8,
			"name":"RockT2"
		},
		{
			"mesh":9,
			"name":"RockT1"
		},
		{
			"mesh":10,
			"name":"Hedge2"
		},
		{
			"mesh":11,
			"name":"Hedge1"
		},
		{
			"mesh":12,
			"name":"TreeT1"
		},
		{
			"mesh":13,
			"name":"TreeT2"
		}
	],
	"materials":[
		{
			"doubleSided":true,
			"name":"UV_Unwrap",
			"pbrMetallicRoughness":{
				"baseColorTexture":{
					"index":0
				},
				"metallicFactor":0,
				"roughnessFactor":0.5
			}
		}
	],
	"meshes":[
		{
			"name":"Dirt MountT5",
			"primitives":[
				{
					"attributes":{
						"COLOR_0":0,
						"POSITION":1,
						"NORMAL":2,
						"TEXCOORD_0":3
					},
					"indices":4,
					"material":0
				}
			]
		},
		{
			"name":"Dirt MountT1",
			"primitives":[
				{
					"attributes":{
						"POSITION":5,
						"NORMAL":6,
						"TEXCOORD_0":7
					},
					"indices":8,
					"material":0
				}
			]
		},
		{
			"name":"Dirt MountT2",
			"primitives":[
				{
					"attributes":{
						"POSITION":9,
						"NORMAL":10,
						"TEXCOORD_0":11
					},
					"indices":12,
					"material":0
				}
			]
		},
		{
			"name":"Dirt MountT3",
			"primitives":[
				{
					"attributes":{
						"POSITION":13,
						"NORMAL":14,
						"TEXCOORD_0":15
					},
					"indices":16,
					"material":0
				}
			]
		},
		{
			"name":"Dirt MountT4",
			"primitives":[
				{
					"attributes":{
						"POSITION":17,
						"NORMAL":18,
						"TEXCOORD_0":19
					},
					"indices":20,
					"material":0
				}
			]
		},
		{
			"name":"Dirt MountT6",
			"primitives":[
				{
					"attributes":{
						"COLOR_0":21,
						"POSITION":22,
						"NORMAL":23,
						"TEXCOORD_0":24
					},
					"indices":25,
					"material":0
				}
			]
		},
		{
			"name":"RockT4",
			"primitives":[
				{
					"attributes":{
						"POSITION":26,
						"NORMAL":27,
						"TEXCOORD_0":28
					},
					"indices":29,
					"material":0
				}
			]
		},
		{
			"name":"RockT3",
			"primitives":[
				{
					"attributes":{
						"COLOR_0":30,
						"POSITION":31,
						"NORMAL":32,
						"TEXCOORD_0":33
					},
					"indices":34,
					"material":0
				}
			]
		},
		{
			"name":"RockT2",
			"primitives":[
				{
					"attributes":{
						"POSITION":35,
						"NORMAL":36,
						"TEXCOORD_0":37
					},
					"indices":38,
					"material":0
				}
			]
		},
		{
			"name":"RockT1",
			"primitives":[
				{
					"attributes":{
						"POSITION":39,
						"NORMAL":40,
						"TEXCOORD_0":41
					},
					"indices":42,
					"material":0
				}
			]
		},
		{
			"name":"HedgeS",
			"primitives":[
				{
					"attributes":{
						"POSITION":43,
						"NORMAL":44,
						"TEXCOORD_0":45
					},
					"indices":46,
					"material":0
				}
			]
		},
		{
			"name":"HedgeL",
			"primitives":[
				{
					"attributes":{
						"POSITION":47,
						"NORMAL":48,
						"TEXCOORD_0":49
					},
					"indices":50,
					"material":0
				}
			]
		},
		{
			"name":"TreeT1",
			"primitives":[
				{
					"attributes":{
						"POSITION":51,
						"NORMAL":52,
						"TEXCOORD_0":53
					},
					"indices":54,
					"material":0
				}
			]
		},
		{
			"name":"TreeT2",
			"primitives":[
				{
					"attributes":{
						"POSITION":55,
						"NORMAL":56,
						"TEXCOORD_0":57
					},
					"indices":58,
					"material":0
				}
			]
		}
	],
	"textures":[
		{
			"sampler":0,
			"source":0
		}
	],
	"images":[
		{
			"mimeType":"image/png",
			"name":"AtalsDiffuse",
			"uri":"AtalsDiffuse.png"
		}
	],
	"accessors":[
		{
			"bufferView":0,
			"componentType":5123,
			"count":1325,
			"normalized":true,
			"type":"VEC4"
		},
		{
			"bufferView":1,
			"componentType":5126,
			"count":1325,
			"max":[
				22.231185913085938,
				8.718098640441895,
				15.792831420898438
			],
			"min":[
				-22.95018196105957,
				-6.021371841430664,
				-14.16946792602539
			],
			"type":"VEC3"
		},
		{
			"bufferView":2,
			"componentType":5126,
			"count":1325,
			"type":"VEC3"
		},
		{
			"bufferView":3,
			"componentType":5126,
			"count":1325,
			"type":"VEC2"
		},
		{
			"bufferView":4,
			"componentType":5123,
			"count":7506,
			"type":"SCALAR"
		},
		{
			"bufferView":5,
			"componentType":5126,
			"count":1852,
			"max":[
				25.378664016723633,
				4.913370609283447,
				12.821459770202637
			],
			"min":[
				-20.4826602935791,
				-5.493374347686768,
				-12.588277816772461
			],
			"type":"VEC3"
		},
		{
			"bufferView":6,
			"componentType":5126,
			"count":1852,
			"type":"VEC3"
		},
		{
			"bufferView":7,
			"componentType":5126,
			"count":1852,
			"type":"VEC2"
		},
		{
			"bufferView":8,
			"componentType":5123,
			"count":10428,
			"type":"SCALAR"
		},
		{
			"bufferView":9,
			"componentType":5126,
			"count":476,
			"max":[
				11.749777793884277,
				1.734413981437683,
				20.556137084960938
			],
			"min":[
				-12.666952133178711,
				-2.8396995067596436,
				-20.552566528320312
			],
			"type":"VEC3"
		},
		{
			"bufferView":10,
			"componentType":5126,
			"count":476,
			"type":"VEC3"
		},
		{
			"bufferView":11,
			"componentType":5126,
			"count":476,
			"type":"VEC2"
		},
		{
			"bufferView":12,
			"componentType":5123,
			"count":2592,
			"type":"SCALAR"
		},
		{
			"bufferView":13,
			"componentType":5126,
			"count":2363,
			"max":[
				26.17646598815918,
				5.5090765953063965,
				26.086524963378906
			],
			"min":[
				-29.265127182006836,
				-4.993175029754639,
				-20.086402893066406
			],
			"type":"VEC3"
		},
		{
			"bufferView":14,
			"componentType":5126,
			"count":2363,
			"type":"VEC3"
		},
		{
			"bufferView":15,
			"componentType":5126,
			"count":2363,
			"type":"VEC2"
		},
		{
			"bufferView":16,
			"componentType":5123,
			"count":13416,
			"type":"SCALAR"
		},
		{
			"bufferView":17,
			"componentType":5126,
			"count":894,
			"max":[
				14.923237800598145,
				9.9296293258667,
				15.142980575561523
			],
			"min":[
				-14.911702156066895,
				-5.987594127655029,
				-14.897035598754883
			],
			"type":"VEC3"
		},
		{
			"bufferView":18,
			"componentType":5126,
			"count":894,
			"type":"VEC3"
		},
		{
			"bufferView":19,
			"componentType":5126,
			"count":894,
			"type":"VEC2"
		},
		{
			"bufferView":20,
			"componentType":5123,
			"count":5004,
			"type":"SCALAR"
		},
		{
			"bufferView":21,
			"componentType":5123,
			"count":1212,
			"normalized":true,
			"type":"VEC4"
		},
		{
			"bufferView":22,
			"componentType":5126,
			"count":1212,
			"max":[
				18.469369888305664,
				9.270822525024414,
				21.415145874023438
			],
			"min":[
				-24.438940048217773,
				-6.156161785125732,
				-22.019245147705078
			],
			"type":"VEC3"
		},
		{
			"bufferView":23,
			"componentType":5126,
			"count":1212,
			"type":"VEC3"
		},
		{
			"bufferView":24,
			"componentType":5126,
			"count":1212,
			"type":"VEC2"
		},
		{
			"bufferView":25,
			"componentType":5123,
			"count":6876,
			"type":"SCALAR"
		},
		{
			"bufferView":26,
			"componentType":5126,
			"count":741,
			"max":[
				8.602670669555664,
				5.356298923492432,
				10.033148765563965
			],
			"min":[
				-8.40343189239502,
				-5.194396018981934,
				-9.796510696411133
			],
			"type":"VEC3"
		},
		{
			"bufferView":27,
			"componentType":5126,
			"count":741,
			"type":"VEC3"
		},
		{
			"bufferView":28,
			"componentType":5126,
			"count":741,
			"type":"VEC2"
		},
		{
			"bufferView":29,
			"componentType":5123,
			"count":4092,
			"type":"SCALAR"
		},
		{
			"bufferView":30,
			"componentType":5123,
			"count":1194,
			"normalized":true,
			"type":"VEC4"
		},
		{
			"bufferView":31,
			"componentType":5126,
			"count":1194,
			"max":[
				10.820816993713379,
				8.161643981933594,
				20.47440528869629
			],
			"min":[
				-9.319692611694336,
				-8.605405807495117,
				-16.80284881591797
			],
			"type":"VEC3"
		},
		{
			"bufferView":32,
			"componentType":5126,
			"count":1194,
			"type":"VEC3"
		},
		{
			"bufferView":33,
			"componentType":5126,
			"count":1194,
			"type":"VEC2"
		},
		{
			"bufferView":34,
			"componentType":5123,
			"count":6792,
			"type":"SCALAR"
		},
		{
			"bufferView":35,
			"componentType":5126,
			"count":544,
			"max":[
				8.66357135772705,
				4.22610330581665,
				8.999242782592773
			],
			"min":[
				-7.4552903175354,
				-2.870450973510742,
				-8.4187650680542
			],
			"type":"VEC3"
		},
		{
			"bufferView":36,
			"componentType":5126,
			"count":544,
			"type":"VEC3"
		},
		{
			"bufferView":37,
			"componentType":5126,
			"count":544,
			"type":"VEC2"
		},
		{
			"bufferView":38,
			"componentType":5123,
			"count":2940,
			"type":"SCALAR"
		},
		{
			"bufferView":39,
			"componentType":5126,
			"count":1432,
			"max":[
				8.657413482666016,
				4.549683094024658,
				16.82088279724121
			],
			"min":[
				-7.172050476074219,
				-3.6787679195404053,
				-14.18541431427002
			],
			"type":"VEC3"
		},
		{
			"bufferView":40,
			"componentType":5126,
			"count":1432,
			"type":"VEC3"
		},
		{
			"bufferView":41,
			"componentType":5126,
			"count":1432,
			"type":"VEC2"
		},
		{
			"bufferView":42,
			"componentType":5123,
			"count":7956,
			"type":"SCALAR"
		},
		{
			"bufferView":43,
			"componentType":5126,
			"count":322,
			"max":[
				5.425820350646973,
				3.778205394744873,
				1.222792625427246
			],
			"min":[
				-5.425820350646973,
				0,
				-1.2228018045425415
			],
			"type":"VEC3"
		},
		{
			"bufferView":44,
			"componentType":5126,
			"count":322,
			"type":"VEC3"
		},
		{
			"bufferView":45,
			"componentType":5126,
			"count":322,
			"type":"VEC2"
		},
		{
			"bufferView":46,
			"componentType":5123,
			"count":1584,
			"type":"SCALAR"
		},
		{
			"bufferView":47,
			"componentType":5126,
			"count":322,
			"max":[
				10.851640701293945,
				3.778205394744873,
				1.222792625427246
			],
			"min":[
				-10.851640701293945,
				0,
				-1.2228018045425415
			],
			"type":"VEC3"
		},
		{
			"bufferView":48,
			"componentType":5126,
			"count":322,
			"type":"VEC3"
		},
		{
			"bufferView":49,
			"componentType":5126,
			"count":322,
			"type":"VEC2"
		},
		{
			"bufferView":50,
			"componentType":5123,
			"count":1584,
			"type":"SCALAR"
		},
		{
			"bufferView":51,
			"componentType":5126,
			"count":474,
			"max":[
				3.2864418029785156,
				8.693618774414062,
				2.9166758060455322
			],
			"min":[
				-2.980617046356201,
				-0.11455272883176804,
				-3.292055130004883
			],
			"type":"VEC3"
		},
		{
			"bufferView":52,
			"componentType":5126,
			"count":474,
			"type":"VEC3"
		},
		{
			"bufferView":53,
			"componentType":5126,
			"count":474,
			"type":"VEC2"
		},
		{
			"bufferView":54,
			"componentType":5123,
			"count":1554,
			"type":"SCALAR"
		},
		{
			"bufferView":55,
			"componentType":5126,
			"count":2203,
			"max":[
				7.275298118591309,
				10.641674041748047,
				5.455339431762695
			],
			"min":[
				-6.306750297546387,
				0.06666354089975357,
				-6.640186786651611
			],
			"type":"VEC3"
		},
		{
			"bufferView":56,
			"componentType":5126,
			"count":2203,
			"type":"VEC3"
		},
		{
			"bufferView":57,
			"componentType":5126,
			"count":2203,
			"type":"VEC2"
		},
		{
			"bufferView":58,
			"componentType":5123,
			"count":9864,
			"type":"SCALAR"
		}
	],
	"bufferViews":[
		{
			"buffer":0,
			"byteLength":10600,
			"byteOffset":0,
			"target":34962
		},
		{
			"buffer":0,
			"byteLength":15900,
			"byteOffset":10600,
			"target":34962
		},
		{
			"buffer":0,
			"byteLength":15900,
			"byteOffset":26500,
			"target":34962
		},
		{
			"buffer":0,
			"byteLength":10600,
			"byteOffset":42400,
			"target":34962
		},
		{
			"buffer":0,
			"byteLength":15012,
			"byteOffset":53000,
			"target":34963
		},
		{
			"buffer":0,
			"byteLength":22224,
			"byteOffset":68012,
			"target":34962
		},
		{
			"buffer":0,
			"byteLength":22224,
			"byteOffset":90236,
			"target":34962
		},
		{
			"buffer":0,
			"byteLength":14816,
			"byteOffset":112460,
			"target":34962
		},
		{
			"buffer":0,
			"byteLength":20856,
			"byteOffset":127276,
			"target":34963
		},
		{
			"buffer":0,
			"byteLength":5712,
			"byteOffset":148132,
			"target":34962
		},
		{
			"buffer":0,
			"byteLength":5712,
			"byteOffset":153844,
			"target":34962
		},
		{
			"buffer":0,
			"byteLength":3808,
			"byteOffset":159556,
			"target":34962
		},
		{
			"buffer":0,
			"byteLength":5184,
			"byteOffset":163364,
			"target":34963
		},
		{
			"buffer":0,
			"byteLength":28356,
			"byteOffset":168548,
			"target":34962
		},
		{
			"buffer":0,
			"byteLength":28356,
			"byteOffset":196904,
			"target":34962
		},
		{
			"buffer":0,
			"byteLength":18904,
			"byteOffset":225260,
			"target":34962
		},
		{
			"buffer":0,
			"byteLength":26832,
			"byteOffset":244164,
			"target":34963
		},
		{
			"buffer":0,
			"byteLength":10728,
			"byteOffset":270996,
			"target":34962
		},
		{
			"buffer":0,
			"byteLength":10728,
			"byteOffset":281724,
			"target":34962
		},
		{
			"buffer":0,
			"byteLength":7152,
			"byteOffset":292452,
			"target":34962
		},
		{
			"buffer":0,
			"byteLength":10008,
			"byteOffset":299604,
			"target":34963
		},
		{
			"buffer":0,
			"byteLength":9696,
			"byteOffset":309612,
			"target":34962
		},
		{
			"buffer":0,
			"byteLength":14544,
			"byteOffset":319308,
			"target":34962
		},
		{
			"buffer":0,
			"byteLength":14544,
			"byteOffset":333852,
			"target":34962
		},
		{
			"buffer":0,
			"byteLength":9696,
			"byteOffset":348396,
			"target":34962
		},
		{
			"buffer":0,
			"byteLength":13752,
			"byteOffset":358092,
			"target":34963
		},
		{
			"buffer":0,
			"byteLength":8892,
			"byteOffset":371844,
			"target":34962
		},
		{
			"buffer":0,
			"byteLength":8892,
			"byteOffset":380736,
			"target":34962
		},
		{
			"buffer":0,
			"byteLength":5928,
			"byteOffset":389628,
			"target":34962
		},
		{
			"buffer":0,
			"byteLength":8184,
			"byteOffset":395556,
			"target":34963
		},
		{
			"buffer":0,
			"byteLength":9552,
			"byteOffset":403740,
			"target":34962
		},
		{
			"buffer":0,
			"byteLength":14328,
			"byteOffset":413292,
			"target":34962
		},
		{
			"buffer":0,
			"byteLength":14328,
			"byteOffset":427620,
			"target":34962
		},
		{
			"buffer":0,
			"byteLength":9552,
			"byteOffset":441948,
			"target":34962
		},
		{
			"buffer":0,
			"byteLength":13584,
			"byteOffset":451500,
			"target":34963
		},
		{
			"buffer":0,
			"byteLength":6528,
			"byteOffset":465084,
			"target":34962
		},
		{
			"buffer":0,
			"byteLength":6528,
			"byteOffset":471612,
			"target":34962
		},
		{
			"buffer":0,
			"byteLength":4352,
			"byteOffset":478140,
			"target":34962
		},
		{
			"buffer":0,
			"byteLength":5880,
			"byteOffset":482492,
			"target":34963
		},
		{
			"buffer":0,
			"byteLength":17184,
			"byteOffset":488372,
			"target":34962
		},
		{
			"buffer":0,
			"byteLength":17184,
			"byteOffset":505556,
			"target":34962
		},
		{
			"buffer":0,
			"byteLength":11456,
			"byteOffset":522740,
			"target":34962
		},
		{
			"buffer":0,
			"byteLength":15912,
			"byteOffset":534196,
			"target":34963
		},
		{
			"buffer":0,
			"byteLength":3864,
			"byteOffset":550108,
			"target":34962
		},
		{
			"buffer":0,
			"byteLength":3864,
			"byteOffset":553972,
			"target":34962
		},
		{
			"buffer":0,
			"byteLength":2576,
			"byteOffset":557836,
			"target":34962
		},
		{
			"buffer":0,
			"byteLength":3168,
			"byteOffset":560412,
			"target":34963
		},
		{
			"buffer":0,
			"byteLength":3864,
			"byteOffset":563580,
			"target":34962
		},
		{
			"buffer":0,
			"byteLength":3864,
			"byteOffset":567444,
			"target":34962
		},
		{
			"buffer":0,
			"byteLength":2576,
			"byteOffset":571308,
			"target":34962
		},
		{
			"buffer":0,
			"byteLength":3168,
			"byteOffset":573884,
			"target":34963
		},
		{
			"buffer":0,
			"byteLength":5688,
			"byteOffset":577052,
			"target":34962
		},
		{
			"buffer":0,
			"byteLength":5688,
			"byteOffset":582740,
			"target":34962
		},
		{
			"buffer":0,
			"byteLength":3792,
			"byteOffset":588428,
			"target":34962
		},
		{
			"buffer":0,
			"byteLength":3108,
			"byteOffset":592220,
			"target":34963
		},
		{
			"buffer":0,
			"byteLength":26436,
			"byteOffset":595328,
			"target":34962
		},
		{
			"buffer":0,
			"byteLength":26436,
			"byteOffset":621764,
			"target":34962
		},
		{
			"buffer":0,
			"byteLength":17624,
			"byteOffset":648200,
			"target":34962
		},
		{
			"buffer":0,
			"byteLength":19728,
			"byteOffset":665824,
			"target":34963
		}
	],
	"samplers":[
		{
			"magFilter":9729,
			"minFilter":9987
		}
	],
	"buffers":[
		{
			"byteLength":685552,
			"uri":"SM_ENV_.bin"
		}
	]
}
