{
	"asset":{
		"generator":"Khronos glTF Blender I/O v4.0.43",
		"version":"2.0"
	},
	"scene":0,
	"scenes":[
		{
			"name":"Scene",
			"nodes":[
				0
			]
		}
	],
	"nodes":[
		{
			"mesh":0,
			"name":"TownHall"
		}
	],
	"materials":[
		{
			"doubleSided":true,
			"name":"Material.009",
			"pbrMetallicRoughness":{
				"baseColorTexture":{
					"index":0
				},
				"metallicFactor":0,
				"roughnessFactor":0.5
			}
		}
	],
	"meshes":[
		{
			"name":"TownHall",
			"primitives":[
				{
					"attributes":{
						"POSITION":0,
						"NORMAL":1,
						"TEXCOORD_0":2
					},
					"indices":3,
					"material":0
				}
			]
		}
	],
	"textures":[
		{
			"sampler":0,
			"source":0
		}
	],
	"images":[
		{
			"mimeType":"image/png",
			"name":"TownhallAtalsDiffuse",
			"uri":"TownhallAtalsDiffuse.png"
		}
	],
	"accessors":[
		{
			"bufferView":0,
			"componentType":5126,
			"count":69870,
			"max":[
				56.098289489746094,
				70.65298461914062,
				8.939220428466797
			],
			"min":[
				-56.098289489746094,
				-4.225813388824463,
				-51.319313049316406
			],
			"type":"VEC3"
		},
		{
			"bufferView":1,
			"componentType":5126,
			"count":69870,
			"type":"VEC3"
		},
		{
			"bufferView":2,
			"componentType":5126,
			"count":69870,
			"type":"VEC2"
		},
		{
			"bufferView":3,
			"componentType":5125,
			"count":123954,
			"type":"SCALAR"
		}
	],
	"bufferViews":[
		{
			"buffer":0,
			"byteLength":838440,
			"byteOffset":0,
			"target":34962
		},
		{
			"buffer":0,
			"byteLength":838440,
			"byteOffset":838440,
			"target":34962
		},
		{
			"buffer":0,
			"byteLength":558960,
			"byteOffset":1676880,
			"target":34962
		},
		{
			"buffer":0,
			"byteLength":495816,
			"byteOffset":2235840,
			"target":34963
		}
	],
	"samplers":[
		{
			"magFilter":9729,
			"minFilter":9987
		}
	],
	"buffers":[
		{
			"byteLength":2731656,
			"uri":"Townhall.bin"
		}
	]
}
