{
	"asset":{
		"generator":"Khronos glTF Blender I/O v4.0.43",
		"version":"2.0"
	},
	"scene":0,
	"scenes":[
		{
			"name":"Scene",
			"nodes":[
				0,
				1,
				2
			]
		}
	],
	"nodes":[
		{
			"mesh":0,
			"name":"Tree1"
		},
		{
			"mesh":1,
			"name":"Tree3"
		},
		{
			"mesh":2,
			"name":"Tree2"
		}
	],
	"materials":[
		{
			"doubleSided":true,
			"name":"TreeBark.001",
			"pbrMetallicRoughness":{
				"baseColorFactor":[
					0.3498288094997406,
					0.14854256808757782,
					0.024067649617791176,
					1
				],
				"metallicFactor":0,
				"roughnessFactor":0.5
			}
		},
		{
			"doubleSided":true,
			"name":"Leaf Dark",
			"pbrMetallicRoughness":{
				"baseColorFactor":[
					0.006112140137702227,
					0.301902174949646,
					0,
					1
				],
				"metallicFactor":0,
				"roughnessFactor":0.5
			}
		}
	],
	"meshes":[
		{
			"name":"Tree1",
			"primitives":[
				{
					"attributes":{
						"POSITION":0,
						"NORMAL":1,
						"TEXCOORD_0":2
					},
					"indices":3,
					"material":0
				},
				{
					"attributes":{
						"POSITION":4,
						"NORMAL":5,
						"TEXCOORD_0":6
					},
					"indices":7,
					"material":1
				}
			]
		},
		{
			"name":"Tree3",
			"primitives":[
				{
					"attributes":{
						"POSITION":8,
						"NORMAL":9,
						"TEXCOORD_0":10
					},
					"indices":11,
					"material":0
				},
				{
					"attributes":{
						"POSITION":12,
						"NORMAL":13,
						"TEXCOORD_0":14
					},
					"indices":15,
					"material":1
				}
			]
		},
		{
			"name":"Tree2",
			"primitives":[
				{
					"attributes":{
						"POSITION":16,
						"NORMAL":17,
						"TEXCOORD_0":18
					},
					"indices":19,
					"material":0
				},
				{
					"attributes":{
						"POSITION":20,
						"NORMAL":21,
						"TEXCOORD_0":22
					},
					"indices":15,
					"material":1
				}
			]
		}
	],
	"accessors":[
		{
			"bufferView":0,
			"componentType":5126,
			"count":1261,
			"max":[
				2.2028279304504395,
				6.456884384155273,
				3.470574140548706
			],
			"min":[
				-2.8368146419525146,
				-0.22674131393432617,
				-2.0542190074920654
			],
			"type":"VEC3"
		},
		{
			"bufferView":1,
			"componentType":5126,
			"count":1261,
			"type":"VEC3"
		},
		{
			"bufferView":2,
			"componentType":5126,
			"count":1261,
			"type":"VEC2"
		},
		{
			"bufferView":3,
			"componentType":5123,
			"count":3636,
			"type":"SCALAR"
		},
		{
			"bufferView":4,
			"componentType":5126,
			"count":4800,
			"max":[
				3.0996179580688477,
				9.589627265930176,
				4.309190273284912
			],
			"min":[
				-4.105698108673096,
				4.2499680519104,
				-3.5958876609802246
			],
			"type":"VEC3"
		},
		{
			"bufferView":5,
			"componentType":5126,
			"count":4800,
			"type":"VEC3"
		},
		{
			"bufferView":6,
			"componentType":5126,
			"count":4800,
			"type":"VEC2"
		},
		{
			"bufferView":7,
			"componentType":5123,
			"count":7200,
			"type":"SCALAR"
		},
		{
			"bufferView":8,
			"componentType":5126,
			"count":609,
			"max":[
				0.6178358793258667,
				6.485822677612305,
				1.4517914056777954
			],
			"min":[
				-2.5579111576080322,
				-0.22674131393432617,
				-1.1826756000518799
			],
			"type":"VEC3"
		},
		{
			"bufferView":9,
			"componentType":5126,
			"count":609,
			"type":"VEC3"
		},
		{
			"bufferView":10,
			"componentType":5126,
			"count":609,
			"type":"VEC2"
		},
		{
			"bufferView":11,
			"componentType":5123,
			"count":1704,
			"type":"SCALAR"
		},
		{
			"bufferView":12,
			"componentType":5126,
			"count":2880,
			"max":[
				1.424848198890686,
				10.193914413452148,
				2.1740596294403076
			],
			"min":[
				-4.615523815155029,
				5.337929725646973,
				-2.656153917312622
			],
			"type":"VEC3"
		},
		{
			"bufferView":13,
			"componentType":5126,
			"count":2880,
			"type":"VEC3"
		},
		{
			"bufferView":14,
			"componentType":5126,
			"count":2880,
			"type":"VEC2"
		},
		{
			"bufferView":15,
			"componentType":5123,
			"count":4320,
			"type":"SCALAR"
		},
		{
			"bufferView":16,
			"componentType":5126,
			"count":807,
			"max":[
				2.545715808868408,
				6.485822677612305,
				1.4517914056777954
			],
			"min":[
				-2.5579111576080322,
				-0.22674131393432617,
				-1.1826756000518799
			],
			"type":"VEC3"
		},
		{
			"bufferView":17,
			"componentType":5126,
			"count":807,
			"type":"VEC3"
		},
		{
			"bufferView":18,
			"componentType":5126,
			"count":807,
			"type":"VEC2"
		},
		{
			"bufferView":19,
			"componentType":5123,
			"count":2268,
			"type":"SCALAR"
		},
		{
			"bufferView":20,
			"componentType":5126,
			"count":2880,
			"max":[
				3.921863079071045,
				10.396581649780273,
				3.100444793701172
			],
			"min":[
				-4.38458251953125,
				4.477036476135254,
				-3.557906150817871
			],
			"type":"VEC3"
		},
		{
			"bufferView":21,
			"componentType":5126,
			"count":2880,
			"type":"VEC3"
		},
		{
			"bufferView":22,
			"componentType":5126,
			"count":2880,
			"type":"VEC2"
		}
	],
	"bufferViews":[
		{
			"buffer":0,
			"byteLength":15132,
			"byteOffset":0,
			"target":34962
		},
		{
			"buffer":0,
			"byteLength":15132,
			"byteOffset":15132,
			"target":34962
		},
		{
			"buffer":0,
			"byteLength":10088,
			"byteOffset":30264,
			"target":34962
		},
		{
			"buffer":0,
			"byteLength":7272,
			"byteOffset":40352,
			"target":34963
		},
		{
			"buffer":0,
			"byteLength":57600,
			"byteOffset":47624,
			"target":34962
		},
		{
			"buffer":0,
			"byteLength":57600,
			"byteOffset":105224,
			"target":34962
		},
		{
			"buffer":0,
			"byteLength":38400,
			"byteOffset":162824,
			"target":34962
		},
		{
			"buffer":0,
			"byteLength":14400,
			"byteOffset":201224,
			"target":34963
		},
		{
			"buffer":0,
			"byteLength":7308,
			"byteOffset":215624,
			"target":34962
		},
		{
			"buffer":0,
			"byteLength":7308,
			"byteOffset":222932,
			"target":34962
		},
		{
			"buffer":0,
			"byteLength":4872,
			"byteOffset":230240,
			"target":34962
		},
		{
			"buffer":0,
			"byteLength":3408,
			"byteOffset":235112,
			"target":34963
		},
		{
			"buffer":0,
			"byteLength":34560,
			"byteOffset":238520,
			"target":34962
		},
		{
			"buffer":0,
			"byteLength":34560,
			"byteOffset":273080,
			"target":34962
		},
		{
			"buffer":0,
			"byteLength":23040,
			"byteOffset":307640,
			"target":34962
		},
		{
			"buffer":0,
			"byteLength":8640,
			"byteOffset":330680,
			"target":34963
		},
		{
			"buffer":0,
			"byteLength":9684,
			"byteOffset":339320,
			"target":34962
		},
		{
			"buffer":0,
			"byteLength":9684,
			"byteOffset":349004,
			"target":34962
		},
		{
			"buffer":0,
			"byteLength":6456,
			"byteOffset":358688,
			"target":34962
		},
		{
			"buffer":0,
			"byteLength":4536,
			"byteOffset":365144,
			"target":34963
		},
		{
			"buffer":0,
			"byteLength":34560,
			"byteOffset":369680,
			"target":34962
		},
		{
			"buffer":0,
			"byteLength":34560,
			"byteOffset":404240,
			"target":34962
		},
		{
			"buffer":0,
			"byteLength":23040,
			"byteOffset":438800,
			"target":34962
		}
	],
	"buffers":[
		{
			"byteLength":461840,
			"uri":"Trees.bin"
		}
	]
}
