{
	"asset":{
		"generator":"Khronos glTF Blender I/O v4.0.43",
		"version":"2.0"
	},
	"scene":0,
	"scenes":[
		{
			"name":"Scene",
			"nodes":[
				0
			]
		}
	],
	"nodes":[
		{
			"mesh":0,
			"name":"Cube"
		}
	],
	"materials":[
		{
			"doubleSided":true,
			"name":"White",
			"pbrMetallicRoughness":{
				"baseColorFactor":[
					0.800000011920929,
					0.800000011920929,
					0.800000011920929,
					1
				],
				"metallicFactor":0,
				"roughnessFactor":0.5
			}
		},
		{
			"doubleSided":true,
			"name":"Grey",
			"pbrMetallicRoughness":{
				"baseColorFactor":[
					0.4000000059604645,
					0.4000000059604645,
					0.4000000059604645,
					1
				],
				"metallicFactor":0,
				"roughnessFactor":0.5
			}
		},
		{
			"doubleSided":true,
			"name":"Black",
			"pbrMetallicRoughness":{
				"baseColorFactor":[
					0.017647087574005127,
					0.017647087574005127,
					0.017647087574005127,
					1
				],
				"metallicFactor":0,
				"roughnessFactor":0.5
			}
		}
	],
	"meshes":[
		{
			"name":"Cube.001",
			"primitives":[
				{
					"attributes":{
						"POSITION":0,
						"NORMAL":1,
						"TEXCOORD_0":2
					},
					"indices":3,
					"material":0
				},
				{
					"attributes":{
						"POSITION":4,
						"NORMAL":5,
						"TEXCOORD_0":6
					},
					"indices":7,
					"material":1
				},
				{
					"attributes":{
						"POSITION":8,
						"NORMAL":9,
						"TEXCOORD_0":10
					},
					"indices":11,
					"material":2
				}
			]
		}
	],
	"accessors":[
		{
			"bufferView":0,
			"componentType":5126,
			"count":4,
			"max":[
				1.4587852954864502,
				2.8351268768310547,
				0.012506723403930664
			],
			"min":[
				-1.4587854146957397,
				0.8900797367095947,
				0.012506663799285889
			],
			"type":"VEC3"
		},
		{
			"bufferView":1,
			"componentType":5126,
			"count":4,
			"type":"VEC3"
		},
		{
			"bufferView":2,
			"componentType":5126,
			"count":4,
			"type":"VEC2"
		},
		{
			"bufferView":3,
			"componentType":5123,
			"count":6,
			"type":"SCALAR"
		},
		{
			"bufferView":4,
			"componentType":5126,
			"count":324,
			"max":[
				1.5593750476837158,
				2.862603187561035,
				0.5506130456924438
			],
			"min":[
				-1.5593749284744263,
				0.07274270057678223,
				-0.5506130456924438
			],
			"type":"VEC3"
		},
		{
			"bufferView":5,
			"componentType":5126,
			"count":324,
			"type":"VEC3"
		},
		{
			"bufferView":6,
			"componentType":5126,
			"count":324,
			"type":"VEC2"
		},
		{
			"bufferView":7,
			"componentType":5123,
			"count":702,
			"type":"SCALAR"
		},
		{
			"bufferView":8,
			"componentType":5126,
			"count":800,
			"max":[
				1.619840383529663,
				2.020381450653076,
				0.5502530336380005
			],
			"min":[
				-1.6198405027389526,
				-0.007357239723205566,
				-0.5507422685623169
			],
			"type":"VEC3"
		},
		{
			"bufferView":9,
			"componentType":5126,
			"count":800,
			"type":"VEC3"
		},
		{
			"bufferView":10,
			"componentType":5126,
			"count":800,
			"type":"VEC2"
		},
		{
			"bufferView":11,
			"componentType":5123,
			"count":2016,
			"type":"SCALAR"
		}
	],
	"bufferViews":[
		{
			"buffer":0,
			"byteLength":48,
			"byteOffset":0,
			"target":34962
		},
		{
			"buffer":0,
			"byteLength":48,
			"byteOffset":48,
			"target":34962
		},
		{
			"buffer":0,
			"byteLength":32,
			"byteOffset":96,
			"target":34962
		},
		{
			"buffer":0,
			"byteLength":12,
			"byteOffset":128,
			"target":34963
		},
		{
			"buffer":0,
			"byteLength":3888,
			"byteOffset":140,
			"target":34962
		},
		{
			"buffer":0,
			"byteLength":3888,
			"byteOffset":4028,
			"target":34962
		},
		{
			"buffer":0,
			"byteLength":2592,
			"byteOffset":7916,
			"target":34962
		},
		{
			"buffer":0,
			"byteLength":1404,
			"byteOffset":10508,
			"target":34963
		},
		{
			"buffer":0,
			"byteLength":9600,
			"byteOffset":11912,
			"target":34962
		},
		{
			"buffer":0,
			"byteLength":9600,
			"byteOffset":21512,
			"target":34962
		},
		{
			"buffer":0,
			"byteLength":6400,
			"byteOffset":31112,
			"target":34962
		},
		{
			"buffer":0,
			"byteLength":4032,
			"byteOffset":37512,
			"target":34963
		}
	],
	"buffers":[
		{
			"byteLength":41544,
			"uri":"WhiteBoard.bin"
		}
	]
}
